<mxfile host="app.diagrams.net" modified="2024-01-15T11:20:00.000Z" agent="5.0" etag="example" version="22.0.0">
  <diagram name="IF-ELSE Örnek" id="flowchart">
    <mxGraphModel dx="1422" dy="794" grid="1" gridSize="10" guides="1" tooltips="1" connect="1" arrows="1" fold="1" page="1" pageScale="1" pageWidth="827" pageHeight="1169" math="0" shadow="0">
      <root>
        <mxCell id="0"/>
        <mxCell id="1" parent="0"/>
        
        <!-- BAŞLA -->
        <mxCell id="start" value="BAŞLA" style="ellipse;whiteSpace=wrap;html=1;fillColor=#d5e8d4;strokeColor=#82b366;" vertex="1" parent="1">
          <mxGeometry x="340" y="40" width="120" height="60" as="geometry"/>
        </mxCell>
        
        <!-- Yaş al -->
        <mxCell id="input" value="yaş al" style="shape=parallelogram;perimeter=parallelogramPerimeter;whiteSpace=wrap;html=1;fixedSize=1;fillColor=#dae8fc;strokeColor=#6c8ebf;" vertex="1" parent="1">
          <mxGeometry x="340" y="140" width="120" height="60" as="geometry"/>
        </mxCell>
        
        <!-- Yaş kontrolü -->
        <mxCell id="decision" value="yaş >= 18 ?" style="rhombus;whiteSpace=wrap;html=1;fillColor=#e1d5e7;strokeColor=#9673a6;" vertex="1" parent="1">
          <mxGeometry x="340" y="240" width="120" height="80" as="geometry"/>
        </mxCell>
        
        <!-- Reşit -->
        <mxCell id="adult" value="&quot;Reşitsiniz&quot;" style="shape=parallelogram;perimeter=parallelogramPerimeter;whiteSpace=wrap;html=1;fixedSize=1;fillColor=#d5e8d4;strokeColor=#82b366;" vertex="1" parent="1">
          <mxGeometry x="180" y="380" width="120" height="60" as="geometry"/>
        </mxCell>
        
        <!-- Reşit değil -->
        <mxCell id="minor" value="&quot;Reşit değilsiniz&quot;" style="shape=parallelogram;perimeter=parallelogramPerimeter;whiteSpace=wrap;html=1;fixedSize=1;fillColor=#ffe6cc;strokeColor=#d79b00;" vertex="1" parent="1">
          <mxGeometry x="500" y="380" width="160" height="60" as="geometry"/>
        </mxCell>
        
        <!-- BITIR -->
        <mxCell id="end" value="BITIR" style="ellipse;whiteSpace=wrap;html=1;fillColor=#f8cecc;strokeColor=#b85450;" vertex="1" parent="1">
          <mxGeometry x="340" y="500" width="120" height="60" as="geometry"/>
        </mxCell>
        
        <!-- Connections -->
        <mxCell id="edge1" edge="1" parent="1" source="start" target="input">
          <mxGeometry relative="1" as="geometry"/>
        </mxCell>
        <mxCell id="edge2" edge="1" parent="1" source="input" target="decision">
          <mxGeometry relative="1" as="geometry"/>
        </mxCell>
        <mxCell id="edge3" edge="1" parent="1" source="decision" target="adult">
          <mxGeometry relative="1" as="geometry"/>
          <mxCell id="labelYes" value="EVET" style="edgeLabel;html=1;align=center;verticalAlign=middle;" vertex="1" connectable="0" parent="edge3">
            <mxGeometry relative="1" as="geometry"/>
          </mxCell>
        </mxCell>
        <mxCell id="edge4" edge="1" parent="1" source="decision" target="minor">
          <mxGeometry relative="1" as="geometry"/>
          <mxCell id="labelNo" value="HAYIR" style="edgeLabel;html=1;align=center;verticalAlign=middle;" vertex="1" connectable="0" parent="edge4">
            <mxGeometry relative="1" as="geometry"/>
          </mxCell>
        </mxCell>
        <mxCell id="edge5" edge="1" parent="1" source="adult" target="end">
          <mxGeometry relative="1" as="geometry"/>
        </mxCell>
        <mxCell id="edge6" edge="1" parent="1" source="minor" target="end">
          <mxGeometry relative="1" as="geometry"/>
        </mxCell>
        
      </root>
    </mxGraphModel>
  </diagram>
</mxfile>